<svg width="1024" height="1024" viewBox="0 0 1024 1024" fill="none" xmlns="http://www.w3.org/2000/svg">
  <rect width="1024" height="1024" fill="#0B2F20"/>
  <path transform="translate(102 102)" d="M96.8266 406.996C96.8266 578.69 237.039 717.875 410 717.875C447.105 717.875 482.703 711.47 515.733 699.712L448.732 638.143C436.13 640.208 423.191 641.282 410 641.282C279.653 641.282 173.985 536.389 173.985 406.996C173.985 277.604 279.653 172.711 410 172.711C540.347 172.711 646.015 277.604 646.015 406.996C646.015 466.601 623.592 521.008 586.663 562.356L522.052 498.732C542.785 473.806 555.24 441.845 555.24 406.996C555.24 406.483 555.237 405.97 555.232 405.458C554.401 326.541 491.794 259.026 410 259.026C327.675 259.026 260.938 325.275 260.938 406.996C260.938 469.095 302.308 519.304 355.535 540.692L355.543 540.695C372.36 547.452 390.742 551.172 410 551.172C434.138 551.172 456.901 545.327 476.931 534.984L716.337 772.637L678.487 810.21L677.803 810.889C671.072 816.571 662.351 820 652.823 820C641.484 820 631.287 815.144 624.228 807.412L591.399 772.092C536.711 798.918 475.129 813.993 410 813.993C183.563 813.993 0 631.774 0 406.996C0 182.218 183.563 0 410 0C636.437 0 820 182.218 820 406.996C820 482.555 799.258 553.305 763.118 613.941C747.84 639.576 729.809 663.402 709.43 685.021L641.05 616.858C692.053 561.556 723.173 487.884 723.173 406.996C723.173 235.303 582.961 96.1172 410 96.1172C237.039 96.1172 96.8266 235.303 96.8266 406.996Z" fill="#C8FF5A"/>
</svg>
